<svg width="1468" height="434" viewBox="0 0 1468 434" fill="none" xmlns="http://www.w3.org/2000/svg">
<circle cx="82.5" cy="36.5" r="12.5" fill="#1A1F22"/>
<circle cx="152.5" cy="36.5" r="12.5" fill="#1A1F22"/>
<circle cx="292.5" cy="36.5" r="12.5" fill="#1A1F22"/>
<circle cx="362.5" cy="36.5" r="12.5" fill="#1A1F22"/>
<circle cx="572.5" cy="36.5" r="12.5" fill="#1A1F22"/>
<circle cx="642.5" cy="36.5" r="12.5" fill="#1A1F22"/>
<circle cx="992.5" cy="36.5" r="12.5" fill="#1A1F22"/>
<circle cx="1062.5" cy="36.5" r="12.5" fill="#1A1F22"/>
<circle cx="1132.5" cy="36.5" r="12.5" fill="#1A1F22"/>
<circle cx="1272.5" cy="36.5" r="12.5" fill="#1A1F22"/>
<circle cx="1342.5" cy="36.5" r="12.5" fill="#1A1F22"/>
<circle cx="12.5" cy="91.5" r="12.5" fill="#1A1F22"/>
<circle cx="82.5" cy="91.5" r="12.5" fill="#1A1F22"/>
<circle cx="152.5" cy="91.5" r="12.5" fill="#1A1F22"/>
<circle cx="292.5" cy="91.5" r="12.5" fill="#394044"/>
<circle cx="362.5" cy="91.5" r="12.5" fill="#1A1F22"/>
<circle cx="432.5" cy="91.5" r="12.5" fill="#1A1F22"/>
<circle cx="502.5" cy="91.5" r="12.5" fill="#1A1F22"/>
<circle cx="572.5" cy="91.5" r="12.5" fill="#1A1F22"/>
<circle cx="712.5" cy="91.5" r="12.5" fill="#1A1F22"/>
<circle cx="782.5" cy="91.5" r="12.5" fill="#1A1F22"/>
<circle cx="852.5" cy="91.5" r="12.5" fill="#1A1F22"/>
<circle cx="992.5" cy="91.5" r="12.5" fill="#1A1F22"/>
<circle cx="1062.5" cy="91.5" r="12.5" fill="#1A1F22"/>
<circle cx="1132.5" cy="91.5" r="12.5" fill="#1A1F22"/>
<circle cx="1272.5" cy="91.5" r="12.5" fill="#1A1F22"/>
<circle cx="1202.5" cy="91.5" r="12.5" fill="#1A1F22"/>
<circle cx="1342.5" cy="91.5" r="12.5" fill="#1A1F22"/>
<circle cx="1412.5" cy="91.5" r="12.5" fill="#394044"/>
<circle cx="82.5" cy="146.5" r="12.5" fill="#1A1F22"/>
<circle cx="152.5" cy="146.5" r="12.5" fill="#1A1F22"/>
<circle cx="292.5" cy="146.5" r="12.5" fill="#1A1F22"/>
<circle cx="222.5" cy="146.5" r="12.5" fill="#1A1F22"/>
<circle cx="362.5" cy="146.5" r="12.5" fill="#1A1F22"/>
<circle cx="432.5" cy="146.5" r="12.5" fill="#1A1F22"/>
<circle cx="502.5" cy="146.5" r="12.5" fill="#1A1F22"/>
<circle cx="712.5" cy="146.5" r="12.5" fill="#394044"/>
<circle cx="642.5" cy="146.5" r="12.5" fill="#1A1F22"/>
<circle cx="782.5" cy="146.5" r="12.5" fill="#1A1F22"/>
<circle cx="922.5" cy="146.5" r="12.5" fill="#1A1F22"/>
<circle cx="852.5" cy="146.5" r="12.5" fill="#1A1F22"/>
<circle cx="992.5" cy="146.5" r="12.5" fill="#1A1F22"/>
<circle cx="1132.5" cy="146.5" r="12.5" fill="#1A1F22"/>
<circle cx="1202.5" cy="146.5" r="12.5" fill="#1A1F22"/>
<circle cx="1342.5" cy="146.5" r="12.5" fill="#1A1F22"/>
<circle cx="12.5" cy="201.5" r="12.5" fill="#1A1F22"/>
<circle cx="82.5" cy="201.5" r="12.5" fill="#1A1F22"/>
<circle cx="292.5" cy="201.5" r="12.5" fill="#1A1F22"/>
<circle cx="362.5" cy="201.5" r="12.5" fill="#1A1F22"/>
<circle cx="502.5" cy="201.5" r="12.5" fill="#1A1F22"/>
<circle cx="712.5" cy="201.5" r="12.5" fill="#1A1F22"/>
<circle cx="642.5" cy="201.5" r="12.5" fill="#1A1F22"/>
<circle cx="782.5" cy="201.5" r="12.5" fill="#1A1F22"/>
<circle cx="922.5" cy="201.5" r="12.5" fill="#394044"/>
<circle cx="852.5" cy="201.5" r="12.5" fill="#1A1F22"/>
<circle cx="992.5" cy="201.5" r="12.5" fill="#1A1F22"/>
<circle cx="1062.5" cy="201.5" r="12.5" fill="#1A1F22"/>
<circle cx="1132.5" cy="201.5" r="12.5" fill="#1A1F22"/>
<circle cx="1272.5" cy="201.5" r="12.5" fill="#1A1F22"/>
<circle cx="1342.5" cy="201.5" r="12.5" fill="#1A1F22"/>
<circle cx="12.5" cy="256.5" r="12.5" fill="#394044"/>
<circle cx="82.5" cy="256.5" r="12.5" fill="#1A1F22"/>
<circle cx="152.5" cy="256.5" r="12.5" fill="#394044"/>
<circle cx="222.5" cy="256.5" r="12.5" fill="#1A1F22"/>
<circle cx="362.5" cy="256.5" r="12.5" fill="#1A1F22"/>
<circle cx="432.5" cy="256.5" r="12.5" fill="#1A1F22"/>
<circle cx="572.5" cy="256.5" r="12.5" fill="#1A1F22"/>
<circle cx="642.5" cy="256.5" r="12.5" fill="#1A1F22"/>
<circle cx="782.5" cy="256.5" r="12.5" fill="#1A1F22"/>
<circle cx="922.5" cy="256.5" r="12.5" fill="#1A1F22"/>
<circle cx="852.5" cy="256.5" r="12.5" fill="#1A1F22"/>
<circle cx="992.5" cy="256.5" r="12.5" fill="#1A1F22"/>
<circle cx="1062.5" cy="256.5" r="12.5" fill="#1A1F22"/>
<circle cx="1272.5" cy="256.5" r="12.5" fill="#1A1F22"/>
<circle cx="1202.5" cy="256.5" r="12.5" fill="#1A1F22"/>
<circle cx="1412.5" cy="256.5" r="12.5" fill="#1A1F22"/>
<circle cx="12.5" cy="311.5" r="12.5" fill="#1A1F22"/>
<circle cx="82.5" cy="311.5" r="12.5" fill="#1A1F22"/>
<circle cx="292.5" cy="311.5" r="12.5" fill="#1A1F22"/>
<circle cx="222.5" cy="311.5" r="12.5" fill="#1A1F22"/>
<circle cx="362.5" cy="311.5" r="12.5" fill="#394044"/>
<circle cx="432.5" cy="311.5" r="12.5" fill="#1A1F22"/>
<circle cx="502.5" cy="311.5" r="12.5" fill="#1A1F22"/>
<circle cx="572.5" cy="311.5" r="12.5" fill="#1A1F22"/>
<circle cx="712.5" cy="311.5" r="12.5" fill="#1A1F22"/>
<circle cx="642.5" cy="311.5" r="12.5" fill="#1A1F22"/>
<circle cx="782.5" cy="311.5" r="12.5" fill="#1A1F22"/>
<circle cx="992.5" cy="311.5" r="12.5" fill="#1A1F22"/>
<circle cx="1132.5" cy="311.5" r="12.5" fill="#1A1F22"/>
<circle cx="1202.5" cy="311.5" r="12.5" fill="#1A1F22"/>
<circle cx="1342.5" cy="311.5" r="12.5" fill="#1A1F22"/>
<circle cx="1412.5" cy="311.5" r="12.5" fill="#1A1F22"/>
<circle cx="82.5" cy="366.5" r="12.5" fill="#1A1F22"/>
<circle cx="152.5" cy="366.5" r="12.5" fill="#1A1F22"/>
<circle cx="292.5" cy="366.5" r="12.5" fill="#1A1F22"/>
<circle cx="222.5" cy="366.5" r="12.5" fill="#1A1F22"/>
<circle cx="362.5" cy="366.5" r="12.5" fill="#1A1F22"/>
<circle cx="502.5" cy="366.5" r="12.5" fill="#1A1F22"/>
<circle cx="572.5" cy="366.5" r="12.5" fill="#394044"/>
<circle cx="712.5" cy="366.5" r="12.5" fill="#1A1F22"/>
<circle cx="642.5" cy="366.5" r="12.5" fill="#1A1F22"/>
<circle cx="782.5" cy="366.5" r="12.5" fill="#1A1F22"/>
<circle cx="922.5" cy="366.5" r="12.5" fill="#1A1F22"/>
<circle cx="852.5" cy="366.5" r="12.5" fill="#1A1F22"/>
<circle cx="992.5" cy="366.5" r="12.5" fill="#1A1F22"/>
<circle cx="1062.5" cy="366.5" r="12.5" fill="#1A1F22"/>
<circle cx="1132.5" cy="366.5" r="12.5" fill="#1A1F22"/>
<circle cx="1272.5" cy="366.5" r="12.5" fill="#394044"/>
<circle cx="1202.5" cy="366.5" r="12.5" fill="#1A1F22"/>
<circle cx="1342.5" cy="366.5" r="12.5" fill="#1A1F22"/>
<circle cx="1412.5" cy="366.5" r="12.5" fill="#1A1F22"/>
<circle cx="292.5" cy="421.5" r="12.5" fill="#1A1F22"/>
<circle cx="572.5" cy="421.5" r="12.5" fill="#1A1F22"/>
<circle cx="642.5" cy="421.5" r="12.5" fill="#1A1F22"/>
<circle cx="782.5" cy="421.5" r="12.5" fill="#1A1F22"/>
<circle cx="852.5" cy="421.5" r="12.5" fill="#1A1F22"/>
<circle cx="1132.5" cy="421.5" r="12.5" fill="#1A1F22"/>
<circle cx="1272.5" cy="421.5" r="12.5" fill="#1A1F22"/>
<circle cx="1202.5" cy="421.5" r="12.5" fill="#1A1F22"/>
<circle cx="1342.5" cy="421.5" r="12.5" fill="#1A1F22"/>
</svg>
