<svg width="303" height="298" viewBox="0 0 303 298" fill="none" xmlns="http://www.w3.org/2000/svg">
<path d="M297.53 0.469666C297.237 0.176788 296.763 0.176788 296.47 0.469666L291.697 5.24265C291.404 5.53552 291.404 6.01041 291.697 6.30331C291.99 6.59619 292.464 6.59619 292.757 6.30331L297 2.06067L301.243 6.30331C301.536 6.59619 302.01 6.59619 302.303 6.30331C302.596 6.01041 302.596 5.53552 302.303 5.24265L297.53 0.469666ZM8 294C8 291.791 6.20914 290 4 290C1.79086 290 0 291.791 0 294C0 296.209 1.79086 298 4 298C6.20914 298 8 296.209 8 294ZM296.25 1C296.25 162.405 165.405 293.25 4 293.25V294.75C166.234 294.75 297.75 163.234 297.75 1H296.25Z" fill="white" fill-opacity="0.2"/>
</svg>
