<svg width="307" height="300" viewBox="0 0 307 300" fill="none" xmlns="http://www.w3.org/2000/svg">
<path d="M7.64645 299.354C7.84171 299.549 8.15829 299.549 8.35355 299.354L11.5355 296.172C11.7308 295.976 11.7308 295.66 11.5355 295.464C11.3403 295.269 11.0237 295.269 10.8284 295.464L8 298.293L5.17157 295.464C4.97631 295.269 4.65973 295.269 4.46447 295.464C4.2692 295.66 4.2692 295.976 4.46447 296.172L7.64645 299.354ZM298.333 6C298.333 7.47276 299.527 8.66667 301 8.66667C302.473 8.66667 303.667 7.47276 303.667 6C303.667 4.52724 302.473 3.33333 301 3.33333C299.527 3.33333 298.333 4.52724 298.333 6ZM8.5 299C8.5 297.672 8.50885 296.346 8.5265 295.022L7.52659 295.009C7.50888 296.337 7.5 297.667 7.5 299H8.5ZM8.73747 287.105C8.84335 284.457 8.98441 281.819 9.16019 279.191L8.16242 279.124C7.98604 281.761 7.8445 284.409 7.73827 287.065L8.73747 287.105ZM9.79441 271.3C10.0422 268.662 10.3251 266.034 10.6425 263.417L9.64976 263.297C9.33126 265.923 9.04745 268.56 8.79879 271.207L9.79441 271.3ZM11.7011 255.577C12.0912 252.955 12.5161 250.345 12.9752 247.747L11.9905 247.573C11.5298 250.18 11.1034 252.799 10.712 255.429L11.7011 255.577ZM14.4572 239.979C14.9892 237.383 15.5555 234.799 16.1558 232.228L15.182 232.001C14.5797 234.58 14.0114 237.173 13.4776 239.778L14.4572 239.979ZM18.0601 224.547C18.7321 221.986 19.438 219.439 20.1772 216.906L19.2172 216.626C18.4755 219.168 17.7672 221.723 17.0929 224.293L18.0601 224.547ZM22.4991 209.336C23.3092 206.818 24.1524 204.315 25.0284 201.827L24.0851 201.495C23.2062 203.991 22.36 206.503 21.5472 209.029L22.4991 209.336ZM27.7612 194.391C28.7068 191.923 29.6849 189.47 30.6949 187.035L29.7711 186.652C28.7577 189.096 27.7762 191.556 26.8274 194.033L27.7612 194.391ZM33.8301 179.756C34.9082 177.344 36.0179 174.95 37.1588 172.573L36.2573 172.14C35.1125 174.525 33.9989 176.928 32.9172 179.348L33.8301 179.756ZM40.6864 165.474C41.8941 163.124 43.1326 160.793 44.4015 158.481L43.5248 158C42.2516 160.32 41.0088 162.659 39.797 165.017L40.6864 165.474ZM48.3082 151.586C49.6417 149.305 51.0052 147.044 52.3982 144.803L51.5489 144.275C50.1512 146.523 48.783 148.792 47.4449 151.081L48.3082 151.586ZM56.6712 138.131C58.1263 135.926 59.6105 133.741 61.1231 131.578L60.3036 131.005C58.7858 133.175 57.2966 135.367 55.8365 137.581L56.6712 138.131ZM65.7495 125.148C67.3215 123.025 68.9216 120.923 70.5492 118.844L69.7618 118.227C68.1287 120.314 66.5231 122.422 64.9458 124.553L65.7495 125.148ZM75.5155 112.673C77.1994 110.638 78.9104 108.625 80.6479 106.637L79.8949 105.979C78.1515 107.974 76.4347 109.993 74.745 112.036L75.5155 112.673ZM85.9399 100.742C87.7306 98.8004 89.5472 96.8833 91.3893 94.991L90.6727 94.2934C88.8244 96.1922 87.0016 98.1158 85.2048 100.064L85.9399 100.742ZM96.991 89.3892C98.8833 87.5472 100.8 85.7306 102.742 83.9399L102.064 83.2048C100.116 85.0016 98.1922 86.8244 96.2935 88.6727L96.991 89.3892ZM108.637 78.6479C110.625 76.9104 112.638 75.1994 114.673 73.5154L114.036 72.7449C111.993 74.4346 109.974 76.1514 107.979 77.8948L108.637 78.6479ZM120.844 68.5492C122.923 66.9216 125.025 65.3215 127.148 63.7495L126.553 62.9457C124.422 64.5231 122.314 66.1287 120.227 67.7618L120.844 68.5492ZM133.578 59.1231C135.741 57.6104 137.926 56.1263 140.131 54.6712L139.581 53.8365C137.368 55.2966 135.175 56.7858 133.005 58.3036L133.578 59.1231ZM146.803 50.3982C149.044 49.0052 151.305 47.6417 153.586 46.3082L153.081 45.4449C150.792 46.7829 148.523 48.1511 146.275 49.5489L146.803 50.3982ZM160.481 42.4014C162.793 41.1326 165.124 39.894 167.474 38.6864L167.017 37.797C164.659 39.0088 162.32 40.2516 160 41.5248L160.481 42.4014ZM174.573 35.1588C176.95 34.0179 179.344 32.9082 181.756 31.8301L181.348 30.9172C178.928 31.9989 176.525 33.1125 174.14 34.2573L174.573 35.1588ZM189.035 28.6948C191.47 27.6848 193.923 26.7068 196.391 25.7612L196.033 24.8274C193.556 25.7762 191.096 26.7576 188.652 27.7711L189.035 28.6948ZM203.827 23.0284C206.315 22.1524 208.818 21.3091 211.336 20.4991L211.03 19.5471C208.503 20.36 205.991 21.2062 203.495 22.0851L203.827 23.0284ZM218.906 18.1771C221.439 17.438 223.986 16.7321 226.547 16.0601L226.293 15.0928C223.723 15.7672 221.168 16.4755 218.626 17.2172L218.906 18.1771ZM234.228 14.1558C236.799 13.5555 239.383 12.9892 241.979 12.4572L241.778 11.4776C239.173 12.0113 236.58 12.5797 234.001 13.182L234.228 14.1558ZM249.747 10.9752C252.345 10.5161 254.955 10.0912 257.577 9.70105L257.429 8.71195C254.799 9.10339 252.18 9.52974 249.573 9.99049L249.747 10.9752ZM265.417 8.64248C268.034 8.32506 270.662 8.04221 273.301 7.7944L273.207 6.79878C270.56 7.04744 267.923 7.33125 265.297 7.64975L265.417 8.64248ZM281.191 7.16019C283.819 6.9844 286.458 6.84334 289.105 6.73746L289.065 5.73826C286.409 5.8445 283.762 5.98604 281.124 6.16242L281.191 7.16019ZM297.022 6.5265C298.346 6.50885 299.672 6.5 301 6.5V5.5C299.668 5.5 298.337 5.50888 297.009 5.52658L297.022 6.5265ZM7.29289 299.707C7.68342 300.098 8.31658 300.098 8.70711 299.707L15.0711 293.343C15.4616 292.953 15.4616 292.319 15.0711 291.929C14.6805 291.538 14.0474 291.538 13.6569 291.929L8 297.586L2.34315 291.929C1.95262 291.538 1.31946 291.538 0.928932 291.929C0.538408 292.319 0.538408 292.953 0.928932 293.343L7.29289 299.707ZM295.667 6C295.667 8.94552 298.054 11.3333 301 11.3333C303.946 11.3333 306.333 8.94552 306.333 6C306.333 3.05448 303.946 0.666667 301 0.666667C298.054 0.666667 295.667 3.05448 295.667 6ZM9 299C9 297.674 9.00884 296.35 9.02645 295.029L7.02663 295.002C7.0089 296.333 7 297.665 7 299H9ZM9.23707 287.125C9.34277 284.482 9.48359 281.848 9.65908 279.224L7.66354 279.091C7.48686 281.733 7.34508 284.384 7.23866 287.045L9.23707 287.125ZM10.2922 271.347C10.5396 268.713 10.822 266.09 11.1389 263.477L9.1534 263.236C8.83435 265.867 8.55006 268.508 8.30098 271.16L10.2922 271.347ZM12.1956 255.65C12.5851 253.033 13.0092 250.428 13.4676 247.834L11.4981 247.486C11.0366 250.098 10.6095 252.721 10.2174 255.356L12.1956 255.65ZM14.947 240.079C15.4781 237.487 16.0435 234.908 16.6427 232.342L14.6951 231.887C14.0917 234.471 13.5225 237.068 12.9877 239.678L14.947 240.079ZM18.5437 224.674C19.2146 222.117 19.9192 219.575 20.6571 217.046L18.7372 216.486C17.9942 219.032 17.2847 221.592 16.6092 224.166L18.5437 224.674ZM22.9751 209.489C23.7837 206.975 24.6256 204.476 25.5 201.993L23.6135 201.329C22.733 203.829 21.8854 206.345 21.0712 208.876L22.9751 209.489ZM28.2282 194.57C29.1721 192.106 30.1485 189.658 31.1567 187.226L29.3093 186.46C28.2941 188.908 27.311 191.373 26.3605 193.854L28.2282 194.57ZM34.2866 179.96C35.3628 177.553 36.4706 175.162 37.6096 172.79L35.8066 171.924C34.6598 174.313 33.5443 176.72 32.4607 179.144L34.2866 179.96ZM41.1311 165.703C42.3367 163.357 43.5731 161.03 44.8398 158.722L43.0865 157.76C41.8111 160.084 40.5662 162.427 39.3523 164.788L41.1311 165.703ZM48.7398 151.838C50.0711 149.561 51.4322 147.304 52.8228 145.067L51.1242 144.011C49.7241 146.263 48.3536 148.536 47.0132 150.829L48.7398 151.838ZM57.0886 138.407C58.5412 136.205 60.0228 134.024 61.5329 131.864L59.8938 130.718C58.3735 132.893 56.8817 135.088 55.4192 137.305L57.0886 138.407ZM66.1514 125.446C67.7207 123.326 69.3181 121.228 70.9429 119.152L69.3681 117.919C67.7322 120.009 66.1239 122.121 64.5439 124.256L66.1514 125.446ZM75.9007 112.992C77.5818 110.96 79.2899 108.951 81.0245 106.966L79.5183 105.65C77.772 107.649 76.0523 109.671 74.3597 111.717L75.9007 112.992ZM86.3075 101.081C88.0951 99.1427 89.9086 97.2288 91.7475 95.3397L90.3144 93.9447C88.463 95.8466 86.6371 97.7735 84.8373 99.7249L86.3075 101.081ZM97.3398 89.7475C99.2289 87.9086 101.143 86.0951 103.081 84.3074L101.725 82.8373C99.7736 84.6371 97.8467 86.463 95.9447 88.3144L97.3398 89.7475ZM108.966 79.0244C110.951 77.2899 112.96 75.5818 114.992 73.9007L113.717 72.3597C111.671 74.0522 109.649 75.772 107.65 77.5183L108.966 79.0244ZM121.152 68.9429C123.228 67.3181 125.326 65.7207 127.446 64.1514L126.256 62.5439C124.121 64.1239 122.009 65.7322 119.919 67.3681L121.152 68.9429ZM133.864 59.5329C136.024 58.0228 138.205 56.5412 140.407 55.0886L139.305 53.4192C137.088 54.8817 134.893 56.3734 132.718 57.8938L133.864 59.5329ZM147.067 50.8228C149.304 49.4322 151.561 48.071 153.838 46.7398L152.829 45.0132C150.536 46.3536 148.263 47.7241 146.011 49.1242L147.067 50.8228ZM160.722 42.8398C163.03 41.5731 165.357 40.3367 167.703 39.1311L166.788 37.3523C164.427 38.5662 162.084 39.8111 159.76 41.0864L160.722 42.8398ZM174.79 35.6096C177.162 34.4706 179.553 33.3628 181.96 32.2866L181.144 30.4607C178.72 31.5443 176.313 32.6598 173.924 33.8066L174.79 35.6096ZM189.226 29.1567C191.658 28.1484 194.106 27.1721 196.57 26.2281L195.854 24.3605C193.373 25.3109 190.908 26.294 188.46 27.3092L189.226 29.1567ZM203.993 23.5C206.476 22.6255 208.975 21.7837 211.489 20.9751L210.876 19.0712C208.345 19.8854 205.829 20.733 203.329 21.6135L203.993 23.5ZM219.046 18.6571C221.575 17.9192 224.117 17.2146 226.674 16.5437L226.166 14.6092C223.592 15.2847 221.032 15.9942 218.486 16.7372L219.046 18.6571ZM234.342 14.6427C236.908 14.0435 239.488 13.4781 242.079 12.947L241.678 10.9877C239.068 11.5224 236.471 12.0917 233.887 12.6951L234.342 14.6427ZM249.834 11.4676C252.428 11.0092 255.033 10.585 257.65 10.1956L257.356 8.21739C254.721 8.60951 252.098 9.03658 249.486 9.49813L249.834 11.4676ZM265.477 9.13884C268.09 8.82197 270.714 8.5396 273.347 8.29221L273.16 6.30097C270.509 6.55005 267.867 6.83434 265.236 7.15339L265.477 9.13884ZM281.224 7.65907C283.848 7.48359 286.482 7.34276 289.125 7.23706L289.045 5.23866C286.384 5.34508 283.733 5.48685 281.091 5.66353L281.224 7.65907ZM297.029 7.02645C298.35 7.00884 299.674 7 301 7V5C299.665 5 298.333 5.00889 297.002 5.02663L297.029 7.02645Z" fill="white" fill-opacity="0.2"/>
</svg>
