<svg width="52" height="52" viewBox="0 0 52 52" fill="none" xmlns="http://www.w3.org/2000/svg">
<path d="M45.5 15.9316V36.0685C45.5 36.5406 45.2441 36.9755 44.8314 37.2049L26.6314 47.3159C26.2388 47.5341 25.7612 47.5341 25.3686 47.3159L7.16865 37.2049C6.75597 36.9755 6.5 36.5406 6.5 36.0685L6.49995 15.9316C6.49995 15.4595 6.75592 15.0245 7.16863 14.7952L25.3686 4.68407C25.7612 4.46595 26.2388 4.46595 26.6314 4.68407L44.8314 14.7952C45.2439 15.0245 45.5 15.4595 45.5 15.9316Z" stroke="white" stroke-width="1.5" stroke-linecap="round" stroke-linejoin="round"/>
<path d="M44.4167 36.2314L26.6314 26.3508C26.2388 26.1326 25.7612 26.1326 25.3686 26.3508L7.58333 36.2314" stroke="white" stroke-width="1.5" stroke-linecap="round" stroke-linejoin="round"/>
<path d="M7.64496 15.8027L25.3686 25.6492C25.7612 25.8674 26.2388 25.8674 26.6314 25.6492L44.4167 15.7685" stroke="white" stroke-width="1.5" stroke-linecap="round" stroke-linejoin="round"/>
<path d="M26 45.5V6.5" stroke="white" stroke-width="1.5" stroke-linecap="round" stroke-linejoin="round"/>
</svg>
